#!OML:ASF F:\VICON\USERDATA\INSTALL\rory3\rory3.ASF
:FULLY-SPECIFIED
:DEGREES
55
root 0.4706360718085155 17.892239943945185 27.335730959842962 -3.952846218254201 -0.8125861230887552 -5.055682002297942
lfemur -17.103102094049476 -0.3220633736973779 -16.23295891113647
ltibia 40.24711291314691
lfoot -16.808280851966536 -4.5290095022399
ltoes -3.231844685973227
rfemur 0.8066770687005462 4.023546980230403 28.261105064611083
rtibia 28.982877053373052
rfoot -0.6477106296905992 -6.697713449294742
rtoes 8.228872715834026
lowerback 9.755013141403376 1.9502096301014418 5.3924573750706575
upperback 0.08011406270737444 3.377055706359082 1.4825134298030591
thorax -5.1381112176476025 1.5403108120776379 -2.2106128251673725
lowerneck -16.15803406000695 -3.0647063631718128 -1.506959100394646
upperneck 21.921150468680214 -3.9808936887654927 0.5779512258585722
head 9.798089184970609 -1.9238842445150315 -0.10874178383250496
lclavicle 6.563340694575355e-16 -1.0577713895893965e-16
lhumerus -30.53739179396854 5.884986377222166 79.9181306652683
lradius 23.22528013159083
lwrist 8.411353546461541
lhand -29.14310545155713 19.402361401639872
lfingers 7.12502
lthumb -2.386942351594057 49.780065307185616
rclavicle 6.563340694618722e-16 -1.0577713895445216e-16
rhumerus -27.67515194821088 -13.149384847260826 -80.39235483539012
rradius 31.914064632524173
rwrist 1.365049461209416
rhand -17.798645614610546 22.5588378698559
rfingers 7.12502
rthumb 8.370801816117185 -6.810877239805262
56
root 0.48573298888584737 17.893056531940264 27.72138223102832 -3.9080948129597672 -0.3880700489803115 -4.674728857607678
lfemur -16.075161766088055 -0.8117507150019353 -16.869709103848958
ltibia 37.86765864920371
lfoot -16.984613576770194 -3.855260239589948
ltoes -2.5308038727987703
rfemur 0.6425841951660196 3.862451286277688 27.69840927511543
rtibia 30.86150379106412
rfoot -0.35630751064104427 -7.664436178338061
rtoes 8.460353584166409
lowerback 9.671932332251677 1.8775623073638392 4.968260361347397
upperback 0.08241530789613069 3.2266200558635503 1.3960062470472825
thorax -5.108171040468887 1.4841726607301 -2.131732668395411
lowerneck -16.19823753355456 -3.058643409235333 -1.5172962500562972
upperneck 22.008905026166538 -3.965050885864062 0.5296980962414447
head 9.870196355437463 -1.9135894834107297 -0.13038434597160822
lclavicle 6.563340694552801e-16 -1.0577713896089876e-16
lhumerus -29.577223054979356 4.913972776252043 79.8533703113855
lradius 23.522264498399892
lwrist 8.59598967637201
lhand -29.132309921475514 19.163159665313348
lfingers 7.12502
lthumb -2.390467252863034 49.43741058565618
rclavicle 6.563340694620223e-16 -1.057771389542765e-16
rhumerus -27.834498654170677 -13.521161745475526 -80.86900298270685
rradius 31.97110876043815
rwrist 1.701189610889399
rhand -17.846207673561242 22.38873501607088
rfingers 7.12502
rthumb 8.27580941612127 -7.167371308610322
57
root 0.49956376980716777 17.891935930558475 28.19716967389151 -3.935689638624953 -0.060554860940325916 -3.9824754800733384
lfemur -14.948196434033969 -1.3970807610479146 -17.948242806560163
ltibia 35.820217428665195
lfoot -17.15149336578851 -3.1237462992759806
ltoes -3.009875860738413
rfemur 0.2376906546618116 3.7329702294116798 26.936005927240473
rtibia 32.52584841915506
rfoot 0.0026478743201270305 -8.515440227339424
rtoes 9.90261953426096
lowerback 9.623222515933673 1.7395845859931276 4.252839448775202
upperback 0.12455408894163493 2.95681639747452 1.2901951282797632
thorax -5.039157181399877 1.4046526503413874 -1.9167679149417758
lowerneck -16.24803585200974 -3.0525064499257044 -1.5330139191570058
upperneck 21.87951427085254 -3.960048970332473 0.5667287454221617
head 9.836071082534168 -1.9104339120717144 -0.11168411037939849
lclavicle 6.563340694583833e-16 -1.0577713895804403e-16
lhumerus -28.39880029820318 3.9732323199910846 79.80575668799813
lradius 23.823497066522282
lwrist 8.39174744163704
lhand -29.12223156021916 18.800193873551304
lfingers 7.12502
lthumb -2.394978170474466 49.04481935435564
rclavicle 6.563340694619686e-16 -1.0577713895422015e-16
rhumerus -27.977284133903186 -13.850970025913513 -81.10899285596363
rradius 32.058837202546904
rwrist 1.8065397341191178
rhand -17.78461496941158 22.34017929288264
rfingers 7.12502
rthumb 8.32822309482722 -7.331851557555557
58
root 0.5138000994086415 17.885891792369094 29.002873793197278 -4.071340054798927 0.23318613151230805 -3.0104877963217285
lfemur -13.260644950214099 -1.9815465965874701 -19.219957241941174
ltibia 33.811324957636145
lfoot -17.169569195088602 -2.3520210213590462
ltoes -5.306730881607114
rfemur -0.45948629350930403 3.526536935349241 25.905522391323636
rtibia 34.203743129133095
rfoot 0.22679501504715027 -9.169740940310216
rtoes 10.717451388182873
lowerback 9.647232216840475 1.5741834985544758 3.3770003146691674
upperback 0.17516992644033574 2.631910734099622 1.1491806605999453
thorax -4.979060321531058 1.2797894038392206 -1.6191586126408253
lowerneck -16.287622839061033 -3.0447825829475508 -1.5625944754162984
upperneck 21.706713587948503 -3.9419491098113557 0.6202835874879922
head 9.770957392098008 -1.9032543522169254 -0.07204566639006299
lclavicle 6.563340694634051e-16 -1.0577713895341794e-16
lhumerus -27.19191971727837 3.085281674848421 79.77400574198323
lradius 24.165444501910585
lwrist 8.182092825277827
lhand -29.154600580542784 18.541533377329873
lfingers 7.12502
lthumb -2.459666251605925 48.77118482059489
rclavicle 6.563340694656192e-16 -1.0577713895074374e-16
rhumerus -28.33130704389178 -14.519192731365631 -81.18832464999184
rradius 32.21404467417794
rwrist 1.9644818924339336
rhand -17.790857621697988 22.21682925997833
rfingers 7.12502
rthumb 8.30434341841039 -7.584584946172977
